<svg width="125" height="21" viewBox="0 0 125 21" fill="none" xmlns="http://www.w3.org/2000/svg">
<path d="M34.1881 2.97314H37.3944V17.8049H34.1881V11.6717H28.6028V17.8049H25.3965V2.97314H28.6028V8.69282H34.1881V2.97314Z" fill="#5B5B5B"/>
<path d="M45.8463 18.1255C44.6809 18.1255 43.6263 17.8639 42.6812 17.3395C41.7362 16.8152 40.9974 16.0917 40.4624 15.1679C39.9274 14.244 39.6611 13.2165 39.6611 12.0853C39.6611 10.9411 39.9286 9.90773 40.4624 8.98745C40.9962 8.06716 41.7362 7.34601 42.6812 6.82519C43.6263 6.30436 44.6809 6.04395 45.8463 6.04395C47.0046 6.04395 48.0556 6.30436 49.0007 6.82519C49.9457 7.34601 50.6869 8.06834 51.2242 8.99216C51.7615 9.91598 52.0314 10.947 52.0314 12.0841C52.0314 13.2153 51.7627 14.2429 51.2242 15.1667C50.6869 16.0905 49.9445 16.8152 49.0007 17.3384C48.0556 17.8627 47.0046 18.1255 45.8463 18.1255ZM43.6534 14.3454C44.226 14.9287 44.9566 15.2197 45.8463 15.2197C46.7359 15.2197 47.4665 14.9287 48.0392 14.3454C48.6118 13.7633 48.8982 13.0091 48.8982 12.0853C48.8982 11.1615 48.6118 10.4085 48.0392 9.82525C47.4665 9.24315 46.7359 8.95092 45.8463 8.95092C44.9566 8.95092 44.226 9.24197 43.6534 9.82525C43.0807 10.4085 42.7943 11.1615 42.7943 12.0853C42.7943 13.0091 43.0807 13.7621 43.6534 14.3454Z" fill="#5B5B5B"/>
<path d="M59.6643 15.0536H61.0713V17.805H58.8784C57.6235 17.805 56.6325 17.4409 55.9043 16.7139C55.1772 15.9868 54.8131 14.9888 54.8131 13.7197V8.84844H52.7451V8.18622L57.2652 3.37622H57.8544V6.36568H61.0088V8.84844H57.9063V13.3061C57.9063 13.8647 58.0583 14.2959 58.3611 14.5988C58.6651 14.9016 59.0999 15.0536 59.6643 15.0536Z" fill="#5B5B5B"/>
<path d="M77.7426 17.8049L76.708 14.9922H70.8022L69.7888 17.8049H66.3857L72.1985 2.97314H75.2186L81.2175 17.8049H77.7426ZM73.7398 6.89231L71.8061 12.1984H75.6947L73.7398 6.89231Z" fill="#5B5B5B"/>
<path d="M86.69 18.1253C85.256 18.1253 84.0988 17.7518 83.2198 17.0035C82.3407 16.2553 81.8977 15.2678 81.8906 14.04H84.9001C84.9072 14.5302 85.0839 14.9049 85.4327 15.1677C85.7803 15.4292 86.2411 15.5612 86.8137 15.5612C87.2686 15.5612 87.6527 15.4611 87.9673 15.2607C88.2808 15.0604 88.4375 14.7776 88.4375 14.4123C88.4375 14.2262 88.3845 14.0647 88.2772 13.9257C88.17 13.7878 88.0027 13.6723 87.7753 13.5792C87.5478 13.4862 87.324 13.4143 87.1024 13.3624C86.8821 13.3106 86.5922 13.254 86.234 13.1916C85.91 13.1362 85.6378 13.0867 85.4174 13.0419C85.1971 12.9971 84.9296 12.93 84.6161 12.8404C84.3027 12.7509 84.0387 12.6531 83.8255 12.5458C83.6122 12.4386 83.3859 12.296 83.1479 12.1169C82.9099 11.9378 82.7202 11.7399 82.5788 11.5219C82.4374 11.305 82.3207 11.0411 82.2276 10.7312C82.1345 10.4213 82.0874 10.0796 82.0874 9.70721C82.0874 8.62431 82.5116 7.74409 83.36 7.06419C84.2084 6.38546 85.3184 6.04492 86.69 6.04492C88.0687 6.04492 89.1763 6.39489 90.0106 7.09483C90.8448 7.79476 91.2655 8.7174 91.2726 9.86157H88.335C88.3279 9.4138 88.1747 9.07562 87.8742 8.8482C87.5738 8.62078 87.1519 8.50648 86.6075 8.50648C86.1315 8.50648 85.7579 8.60664 85.4857 8.80696C85.2135 9.00728 85.0769 9.2724 85.0769 9.60352C85.0769 9.72724 85.0993 9.84036 85.144 9.93935C85.1888 10.0395 85.2678 10.1255 85.3821 10.1974C85.4964 10.2693 85.6024 10.3317 85.7026 10.3836C85.8027 10.4354 85.9547 10.4873 86.1574 10.5391C86.3613 10.591 86.5262 10.6287 86.6535 10.6534C86.7807 10.6782 86.9752 10.7135 87.2379 10.7618C88.3479 10.9621 89.148 11.1684 89.6371 11.3828C90.8708 11.9343 91.4882 12.8993 91.4882 14.2792C91.4882 15.4446 91.0499 16.3766 90.1744 17.0766C89.3 17.7753 88.1382 18.1253 86.69 18.1253Z" fill="#5B5B5B"/>
<path d="M97.8082 18.1253C96.3741 18.1253 95.217 17.7518 94.338 17.0035C93.4589 16.2553 93.0159 15.2678 93.0088 14.04H96.0183C96.0253 14.5302 96.2021 14.9049 96.5509 15.1677C96.8985 15.4292 97.3592 15.5612 97.9319 15.5612C98.3867 15.5612 98.7709 15.4611 99.0855 15.2607C99.3989 15.0604 99.5557 14.7776 99.5557 14.4123C99.5557 14.2262 99.5026 14.0647 99.3954 13.9257C99.2882 13.7878 99.1209 13.6723 98.8934 13.5792C98.666 13.4862 98.4421 13.4143 98.2206 13.3624C98.0002 13.3106 97.7104 13.254 97.3522 13.1916C97.0281 13.1362 96.7559 13.0867 96.5356 13.0419C96.3152 12.9971 96.0477 12.93 95.7343 12.8404C95.4209 12.7509 95.1569 12.6531 94.9436 12.5458C94.7303 12.4386 94.5041 12.296 94.2661 12.1169C94.0281 11.9378 93.8383 11.7399 93.6969 11.5219C93.5555 11.305 93.4389 11.0411 93.3458 10.7312C93.2527 10.4213 93.2056 10.0796 93.2056 9.70721C93.2056 8.62431 93.6298 7.74409 94.4782 7.06419C95.3266 6.38546 96.4366 6.04492 97.8082 6.04492C99.1868 6.04492 100.294 6.39489 101.129 7.09483C101.963 7.79476 102.384 8.7174 102.391 9.86157H99.4531C99.4461 9.4138 99.2929 9.07562 98.9924 8.8482C98.6919 8.62078 98.2701 8.50648 97.7257 8.50648C97.2496 8.50648 96.8761 8.60664 96.6039 8.80696C96.3317 9.00728 96.195 9.2724 96.195 9.60352C96.195 9.72724 96.2174 9.84036 96.2622 9.93935C96.307 10.0395 96.3859 10.1255 96.5002 10.1974C96.6145 10.2693 96.7206 10.3317 96.8207 10.3836C96.9209 10.4354 97.0729 10.4873 97.2756 10.5391C97.4794 10.591 97.6444 10.6287 97.7716 10.6534C97.8989 10.6782 98.0933 10.7135 98.3561 10.7618C99.4661 10.9621 100.266 11.1684 100.755 11.3828C101.989 11.9343 102.606 12.8993 102.606 14.2792C102.606 15.4446 102.168 16.3766 101.293 17.0766C100.418 17.7753 99.2564 18.1253 97.8082 18.1253Z" fill="#5B5B5B"/>
<path d="M115.97 12.0442C115.97 12.3541 115.949 12.6581 115.908 12.9538H107.251C107.381 13.7327 107.694 14.3313 108.186 14.7484C108.679 15.1656 109.301 15.3741 110.053 15.3741C110.584 15.3741 111.061 15.2575 111.486 15.023C111.91 14.7885 112.239 14.4645 112.473 14.0509H115.721C115.307 15.2987 114.589 16.2897 113.569 17.025C112.548 17.7591 111.376 18.1268 110.053 18.1268C108.943 18.1268 107.934 17.8628 107.028 17.3361C106.121 16.8082 105.409 16.0835 104.892 15.1585C104.374 14.2347 104.116 13.2107 104.116 12.0866C104.116 10.9554 104.373 9.92903 104.887 9.00403C105.401 8.08021 106.111 7.3567 107.017 6.83234C107.923 6.30798 108.936 6.04639 110.053 6.04639C111.197 6.04639 112.224 6.31741 113.135 6.85826C114.045 7.4003 114.745 8.12498 115.235 9.03584C115.725 9.94434 115.97 10.9471 115.97 12.0442ZM110.055 8.68234C109.373 8.68234 108.793 8.87205 108.317 9.25148C107.841 9.63091 107.513 10.1612 107.334 10.8446H112.878C112.665 10.1482 112.315 9.61323 111.828 9.24087C111.342 8.86852 110.751 8.68234 110.055 8.68234Z" fill="#5B5B5B"/>
<path d="M123.593 15.0536H125V17.805H122.807C121.552 17.805 120.561 17.4409 119.834 16.7139C119.107 15.9868 118.743 14.9888 118.743 13.7197V8.84844H116.675V8.18622L121.195 3.37622H121.784V6.36568H124.939V8.84844H121.836V13.3061C121.836 13.8647 121.988 14.2959 122.291 14.5988C122.594 14.9016 123.027 15.0536 123.593 15.0536Z" fill="#5B5B5B"/>
<path d="M14.9923 8.9331V19.6312C14.9923 20.3867 14.38 21 13.6236 21H1.36878C0.61235 21 0 20.3867 0 19.6312V1.36878C0 0.61235 0.61235 0 1.36878 0H6.00765L14.9923 8.9331Z" fill="url(#paint0_linear_201:3828)"/>
<path d="M14.5374 8.4501C14.7283 8.63851 14.5949 8.96363 14.3267 8.96363H7.28064C6.55922 8.96363 5.97461 8.38338 5.97461 7.66734V0.717535C5.97461 0.45122 6.29578 0.316941 6.48533 0.504003L14.5374 8.4501Z" fill="url(#paint1_linear_201:3828)"/>
<defs>
<linearGradient id="paint0_linear_201:3828" x1="7.49616" y1="-6.37484" x2="7.49616" y2="28.7431" gradientUnits="userSpaceOnUse">
<stop stop-color="#FF008F"/>
<stop offset="1" stop-color="#FF6767"/>
</linearGradient>
<linearGradient id="paint1_linear_201:3828" x1="10.8357" y1="4.43717" x2="5.67436" y2="9.03261" gradientUnits="userSpaceOnUse">
<stop stop-color="#FFA8A3"/>
<stop offset="0.192708" stop-color="#FF6060"/>
<stop offset="0.416667" stop-color="#FF6767"/>
<stop offset="1" stop-color="#FF6767"/>
</linearGradient>
</defs>
</svg>
