<svg width="18" height="22" viewBox="0 0 18 22" fill="none" xmlns="http://www.w3.org/2000/svg">
<path fill-rule="evenodd" clip-rule="evenodd" d="M10.7136 2.46404C13.0617 3.22561 14.7753 5.44687 14.7753 7.98544C14.7753 10.9683 15.4099 13.1261 17.4408 15.2839C18.5197 16.4262 17.9485 18.0128 16.4888 18.0128H1.51122C0.0515338 18.0128 -0.519646 16.4262 0.559249 15.2839C2.59011 13.1261 3.22475 10.9683 3.22475 7.98544C3.22475 5.44687 4.93829 3.22561 7.28648 2.46404C7.28648 1.57554 8.04805 0.813965 9.00002 0.813965C9.95198 0.813965 10.7136 1.57554 10.7136 2.46404Z" fill="#6E6D7A"/>
<path fill-rule="evenodd" clip-rule="evenodd" d="M12.3 18.6475C11.9192 20.1071 10.5865 21.186 8.99986 21.186C7.41325 21.186 6.08049 20.1071 5.69971 18.6475H12.3Z" fill="#6E6D7A"/>
</svg>
