<svg width="50" height="50" viewBox="0 0 50 50" fill="none" xmlns="http://www.w3.org/2000/svg">
<g clip-path="url(#clip0_2:657)">
<path d="M36.458 12.5H44.583C44.6861 12.5002 44.787 12.4697 44.8729 12.4125C44.9587 12.3553 45.0256 12.2739 45.0651 12.1786C45.1046 12.0833 45.1149 11.9784 45.0947 11.8773C45.0745 11.7761 45.0248 11.6832 44.9518 11.6104L34.2226 0.89164C34.1504 0.819212 34.0584 0.769647 33.9582 0.749129C33.858 0.728611 33.754 0.738048 33.6592 0.776262C33.5643 0.814477 33.4828 0.879777 33.4248 0.964018C33.3668 1.04826 33.3349 1.14771 33.333 1.24997V9.37497C33.333 10.2038 33.6622 10.9986 34.2483 11.5847C34.8344 12.1707 35.6292 12.5 36.458 12.5Z" fill="#0D9D59"/>
<path d="M45.3128 14.5833H36.4587C35.0773 14.5833 33.7526 14.0346 32.7758 13.0578C31.7991 12.0811 31.2503 10.7563 31.2503 9.375V0.522917C31.2506 0.454345 31.2373 0.386394 31.2113 0.322963C31.1852 0.259531 31.1469 0.201869 31.0985 0.153284C31.0501 0.1047 30.9926 0.0661489 30.9293 0.0398444C30.866 0.0135399 30.7981 -5.48565e-07 30.7295 0L8.33366 0C7.22859 0 6.16878 0.438987 5.38738 1.22039C4.60598 2.00179 4.16699 3.0616 4.16699 4.16667V45.8333C4.16699 46.9384 4.60598 47.9982 5.38738 48.7796C6.16878 49.561 7.22859 50 8.33366 50H41.667C42.7721 50 43.8319 49.561 44.6133 48.7796C45.3947 47.9982 45.8337 46.9384 45.8337 45.8333V15.1062C45.8339 15.0377 45.8207 14.9697 45.7946 14.9063C45.7686 14.8429 45.7302 14.7852 45.6818 14.7366C45.6335 14.688 45.5759 14.6495 45.5126 14.6232C45.4493 14.5969 45.3814 14.5833 45.3128 14.5833ZM17.7087 39.325C18.054 39.325 18.3852 39.4622 18.6294 39.7064C18.8736 39.9506 19.0107 40.2817 19.0107 40.6271C19.0107 40.9724 18.8736 41.3036 18.6294 41.5478C18.3852 41.792 18.054 41.9292 17.7087 41.9292C15.7057 41.9292 13.7848 41.1335 12.3685 39.7172C10.9522 38.3009 10.1566 36.38 10.1566 34.3771C10.1566 32.3741 10.9522 30.4532 12.3685 29.037C13.7848 27.6207 15.7057 26.825 17.7087 26.825C18.054 26.825 18.3852 26.9622 18.6294 27.2064C18.8736 27.4506 19.0107 27.7817 19.0107 28.1271C19.0107 28.4724 18.8736 28.8036 18.6294 29.0478C18.3852 29.292 18.054 29.4292 17.7087 29.4292C16.3964 29.4292 15.1379 29.9505 14.21 30.8784C13.282 31.8063 12.7607 33.0648 12.7607 34.3771C12.7607 35.6894 13.282 36.9479 14.21 37.8758C15.1379 38.8037 16.3964 39.325 17.7087 39.325ZM23.8066 32.0167L27.6399 34.5708C28.3571 35.0491 28.9014 35.7455 29.1923 36.557C29.4832 37.3685 29.5053 38.252 29.2554 39.0771C29.0055 39.9021 28.4967 40.6248 27.8044 41.1384C27.112 41.652 26.2728 41.9293 25.4107 41.9292H21.8753C21.53 41.9292 21.1988 41.792 20.9546 41.5478C20.7104 41.3036 20.5732 40.9724 20.5732 40.6271C20.5732 40.2817 20.7104 39.9506 20.9546 39.7064C21.1988 39.4622 21.53 39.325 21.8753 39.325H25.417C25.7201 39.3249 26.015 39.2273 26.2584 39.0466C26.5017 38.866 26.6805 38.6118 26.7683 38.3218C26.8561 38.0317 26.8483 37.7211 26.746 37.4358C26.6438 37.1505 26.4524 36.9057 26.2003 36.7375L22.367 34.1833C21.6498 33.705 21.1055 33.0087 20.8146 32.1972C20.5237 31.3857 20.5016 30.5021 20.7515 29.6771C21.0014 28.8521 21.5102 28.1293 22.2025 27.6157C22.8949 27.1021 23.7341 26.8249 24.5962 26.825H28.1378C28.4832 26.825 28.8143 26.9622 29.0585 27.2064C29.3027 27.4506 29.4399 27.7817 29.4399 28.1271C29.4399 28.4724 29.3027 28.8036 29.0585 29.0478C28.8143 29.292 28.4832 29.4292 28.1378 29.4292H24.5837C24.2806 29.4293 23.9856 29.5269 23.7423 29.7075C23.4989 29.8882 23.3202 30.1423 23.2323 30.4324C23.1445 30.7225 23.1523 31.0331 23.2546 31.3184C23.3569 31.6036 23.5482 31.8485 23.8003 32.0167H23.8066ZM39.8482 31.2521C39.8391 34.9138 38.6506 38.4751 36.4587 41.4083C36.3374 41.57 36.1801 41.7013 35.9993 41.7917C35.8185 41.8821 35.6191 41.9292 35.417 41.9292C35.2148 41.9292 35.0155 41.8821 34.8347 41.7917C34.6539 41.7013 34.4966 41.57 34.3753 41.4083C32.1845 38.474 30.9974 34.9119 30.9899 31.25V28.125C30.9899 27.7797 31.1271 27.4485 31.3713 27.2043C31.6155 26.9601 31.9467 26.8229 32.292 26.8229C32.6373 26.8229 32.9685 26.9601 33.2127 27.2043C33.4569 27.4485 33.5941 27.7797 33.5941 28.125V31.25C33.5993 33.4264 34.0979 35.5733 35.0524 37.5292C35.0976 37.5848 35.1548 37.6294 35.2198 37.6596C35.2847 37.6898 35.3557 37.7049 35.4273 37.7037C35.499 37.7025 35.5694 37.685 35.6333 37.6526C35.6972 37.6202 35.7529 37.5737 35.7962 37.5167C36.7484 35.5644 37.247 33.4221 37.2545 31.25V28.125C37.2545 27.7797 37.3917 27.4485 37.6359 27.2043C37.8801 26.9601 38.2112 26.8229 38.5566 26.8229C38.9019 26.8229 39.2331 26.9601 39.4773 27.2043C39.7215 27.4485 39.8587 27.7797 39.8587 28.125L39.8482 31.2521Z" fill="#0D9D59"/>
</g>
<defs>
<clipPath id="clip0_2:657">
<rect width="50" height="50" fill="white"/>
</clipPath>
</defs>
</svg>
