<svg width="24" height="24" viewBox="0 0 24 24" fill="none" xmlns="http://www.w3.org/2000/svg">
<path fill-rule="evenodd" clip-rule="evenodd" d="M12.3605 2C18.0735 2 22.7215 6.648 22.7215 12.361C22.7215 18.074 18.0735 22.722 12.3605 22.722C6.64751 22.722 1.99951 18.074 1.99951 12.361C1.99951 6.648 6.64751 2 12.3605 2ZM12.3605 3.5C7.47451 3.5 3.49951 7.476 3.49951 12.361C3.49951 17.247 7.47451 21.222 12.3605 21.222C17.2465 21.222 21.2215 17.247 21.2215 12.361C21.2215 7.476 17.2465 3.5 12.3605 3.5ZM16.2321 8.4899C16.4291 8.6879 16.5011 8.9789 16.4171 9.2439L14.8251 14.3329C14.7521 14.5679 14.5671 14.7519 14.3331 14.8249L9.24411 16.4179C9.17011 16.4409 9.09411 16.4519 9.02011 16.4519C8.82411 16.4519 8.63211 16.3749 8.48911 16.2329C8.29211 16.0349 8.22011 15.7439 8.30411 15.4789L9.89711 10.3899C9.97011 10.1539 10.1541 9.9709 10.3881 9.8979L15.4771 8.3049C15.7441 8.2199 16.0341 8.2929 16.2321 8.4899ZM14.5581 10.1639L11.2111 11.2119L10.1641 14.5589L13.5101 13.5109L14.5581 10.1639Z" fill="#0D0C22"/>
</svg>
