<svg width="20" height="20" viewBox="0 0 20 20" fill="none" xmlns="http://www.w3.org/2000/svg">
<path d="M15.7673 11.9555C15.756 12.0486 15.7109 12.1344 15.6404 12.1964C15.57 12.2584 15.4792 12.2923 15.3853 12.2916H13.8194C13.7181 12.2916 13.6209 12.3318 13.5493 12.4035C13.4777 12.4751 13.4374 12.5722 13.4374 12.6735V18.7846C13.4374 18.8859 13.4777 18.9831 13.5493 19.0547C13.6209 19.1263 13.7181 19.1666 13.8194 19.1666H18.4027C18.6053 19.1666 18.7996 19.0861 18.9428 18.9428C19.0861 18.7996 19.1666 18.6053 19.1666 18.4027V1.59714C19.1666 1.39454 19.0861 1.20025 18.9428 1.05699C18.7996 0.913733 18.6053 0.833252 18.4027 0.833252H1.59714C1.39454 0.833252 1.20025 0.913733 1.05699 1.05699C0.913733 1.20025 0.833252 1.39454 0.833252 1.59714L0.833252 18.4027C0.833252 18.6053 0.913733 18.7996 1.05699 18.9428C1.20025 19.0861 1.39454 19.1666 1.59714 19.1666H9.99992C10.1012 19.1666 10.1984 19.1263 10.27 19.0547C10.3416 18.9831 10.3819 18.8859 10.3819 18.7846V12.6735C10.3819 12.5722 10.3416 12.4751 10.27 12.4035C10.1984 12.3318 10.1012 12.2916 9.99992 12.2916H8.47214C8.37084 12.2916 8.27369 12.2513 8.20206 12.1797C8.13044 12.1081 8.0902 12.0109 8.0902 11.9096V9.61797C8.0902 9.51668 8.13044 9.41953 8.20206 9.3479C8.27369 9.27627 8.37084 9.23603 8.47214 9.23603H9.99992C10.1012 9.23603 10.1984 9.19579 10.27 9.12416C10.3416 9.05253 10.3819 8.95538 10.3819 8.85408V7.85339C10.3819 6.70062 10.8398 5.59506 11.6549 4.77993C12.4701 3.9648 13.5756 3.50686 14.7284 3.50686H15.7291C15.8304 3.50686 15.9275 3.5471 15.9992 3.61873C16.0708 3.69036 16.111 3.78751 16.111 3.88881V6.18047C16.111 6.28177 16.0708 6.37892 15.9992 6.45055C15.9275 6.52218 15.8304 6.56242 15.7291 6.56242H14.7284C14.386 6.56242 14.0576 6.69843 13.8155 6.94054C13.5734 7.18264 13.4374 7.511 13.4374 7.85339V8.85408C13.4374 8.95538 13.4777 9.05253 13.5493 9.12416C13.6209 9.19579 13.7181 9.23603 13.8194 9.23603H15.6756C15.7299 9.23564 15.7836 9.24681 15.8332 9.2688C15.8828 9.2908 15.9271 9.32311 15.9633 9.36358C15.9994 9.40406 16.0265 9.45177 16.0428 9.50353C16.059 9.5553 16.0641 9.60994 16.0576 9.66381L15.7673 11.9555Z" fill="#6E6D7A"/>
</svg>
