<svg width="20" height="20" viewBox="0 0 20 20" fill="none" xmlns="http://www.w3.org/2000/svg">
<path d="M14.2013 0.833252H5.79853C4.48228 0.835272 3.22051 1.35905 2.28978 2.28978C1.35905 3.22051 0.835272 4.48228 0.833252 5.79853L0.833252 14.2013C0.835272 15.5176 1.35905 16.7793 2.28978 17.7101C3.22051 18.6408 4.48228 19.1646 5.79853 19.1666H14.2013C15.5176 19.1646 16.7793 18.6408 17.7101 17.7101C18.6408 16.7793 19.1646 15.5176 19.1666 14.2013V5.79853C19.1646 4.48228 18.6408 3.22051 17.7101 2.28978C16.7793 1.35905 15.5176 0.835272 14.2013 0.833252V0.833252ZM9.99992 14.2013C9.16896 14.2013 8.35667 13.9549 7.66575 13.4932C6.97484 13.0316 6.43633 12.3754 6.11834 11.6077C5.80035 10.84 5.71715 9.99526 5.87926 9.18027C6.04137 8.36528 6.44151 7.61666 7.02909 7.02909C7.61666 6.44151 8.36528 6.04137 9.18027 5.87926C9.99526 5.71715 10.84 5.80035 11.6077 6.11834C12.3754 6.43633 13.0316 6.97484 13.4932 7.66575C13.9549 8.35667 14.2013 9.16896 14.2013 9.99992C14.2013 11.1142 13.7587 12.1828 12.9707 12.9707C12.1828 13.7587 11.1142 14.2013 9.99992 14.2013ZM14.9652 5.79853C14.7386 5.79853 14.517 5.73133 14.3286 5.60542C14.1402 5.47952 13.9933 5.30056 13.9066 5.09119C13.8199 4.88181 13.7972 4.65143 13.8414 4.42916C13.8856 4.20689 13.9947 4.00272 14.155 3.84247C14.3152 3.68222 14.5194 3.57309 14.7417 3.52888C14.9639 3.48467 15.1943 3.50736 15.4037 3.59408C15.6131 3.68081 15.792 3.82767 15.9179 4.01611C16.0438 4.20454 16.111 4.42607 16.111 4.6527C16.111 4.95659 15.9903 5.24804 15.7754 5.46292C15.5605 5.67781 15.2691 5.79853 14.9652 5.79853Z" fill="#6E6D7A"/>
</svg>
