<svg width="50" height="50" viewBox="0 0 50 50" fill="none" xmlns="http://www.w3.org/2000/svg">
<g clip-path="url(#clip0_2:636)">
<path d="M36.458 12.5H44.583C44.6861 12.5002 44.787 12.4698 44.8729 12.4125C44.9587 12.3553 45.0256 12.2739 45.0651 12.1786C45.1046 12.0833 45.1149 11.9785 45.0947 11.8773C45.0745 11.7762 45.0248 11.6833 44.9518 11.6104L34.2226 0.885431C34.15 0.812651 34.0575 0.76298 33.9567 0.742672C33.856 0.722364 33.7514 0.732329 33.6563 0.77131C33.5612 0.810292 33.4797 0.876548 33.4222 0.961733C33.3647 1.04692 33.3336 1.14722 33.333 1.25001V9.37502C33.333 10.2038 33.6622 10.9987 34.2483 11.5847C34.8344 12.1708 35.6292 12.5 36.458 12.5Z" fill="#EB4336"/>
<path d="M24.8979 28.7958C24.6792 28.6999 24.2188 28.6958 24.2188 29.1375V37.4229C24.2218 37.5023 24.244 37.5798 24.2835 37.6488C24.3229 37.7178 24.3784 37.7763 24.4453 37.8192C24.5122 37.8622 24.5885 37.8883 24.6676 37.8955C24.7468 37.9027 24.8265 37.8906 24.9 37.8604C25.7816 37.4753 26.5318 36.8414 27.0586 36.0363C27.5854 35.2313 27.866 34.2901 27.866 33.3281C27.866 32.366 27.5854 31.4248 27.0586 30.6198C26.5318 29.8148 25.7816 29.1809 24.9 28.7958H24.8979Z" fill="#EB4336"/>
<path d="M15.6247 28.3813H14.3268C14.1875 28.3813 14.054 28.4366 13.9555 28.5351C13.8571 28.6335 13.8018 28.7671 13.8018 28.9063V31.5021C13.8018 31.6414 13.8571 31.7749 13.9555 31.8734C14.054 31.9718 14.1875 32.0271 14.3268 32.0271H15.6247C16.1081 32.0271 16.5718 31.8351 16.9137 31.4932C17.2555 31.1514 17.4476 30.6877 17.4476 30.2042C17.4476 29.7208 17.2555 29.2571 16.9137 28.9152C16.5718 28.5734 16.1081 28.3813 15.6247 28.3813Z" fill="#EB4336"/>
<path d="M45.3128 14.5833H36.4587C35.0773 14.5833 33.7526 14.0346 32.7758 13.0578C31.7991 12.0811 31.2503 10.7563 31.2503 9.375V0.516667C31.2492 0.379256 31.1939 0.247848 31.0963 0.151072C30.9988 0.0542966 30.8669 -4.39707e-06 30.7295 2.67054e-10L8.33366 2.67054e-10C7.22859 2.67055e-10 6.16878 0.438987 5.38738 1.22039C4.60598 2.00179 4.16699 3.0616 4.16699 4.16667V45.8333C4.16699 46.9384 4.60598 47.9982 5.38738 48.7796C6.16878 49.561 7.22859 50 8.33366 50H41.667C42.7721 50 43.8319 49.561 44.6133 48.7796C45.3947 47.9982 45.8337 46.9384 45.8337 45.8333V15.1C45.8326 14.9626 45.7772 14.8312 45.6796 14.7344C45.5821 14.6376 45.4502 14.5833 45.3128 14.5833ZM15.6253 34.6312H14.3274C14.1882 34.6312 14.0546 34.6866 13.9562 34.785C13.8577 34.8835 13.8024 35.017 13.8024 35.1562V39.5833C13.8024 39.9287 13.6652 40.2599 13.421 40.504C13.1769 40.7482 12.8457 40.8854 12.5003 40.8854C12.155 40.8854 11.8238 40.7482 11.5796 40.504C11.3354 40.2599 11.1982 39.9287 11.1982 39.5833V27.0833C11.1977 26.912 11.231 26.7422 11.2962 26.5838C11.3613 26.4253 11.4572 26.2813 11.5781 26.1599C11.6991 26.0386 11.8428 25.9423 12.0011 25.8766C12.1593 25.8109 12.329 25.7771 12.5003 25.7771H15.6253C16.7995 25.7771 17.9255 26.2435 18.7557 27.0737C19.586 27.904 20.0524 29.03 20.0524 30.2042C20.0524 31.3783 19.586 32.5043 18.7557 33.3346C17.9255 34.1648 16.7995 34.6312 15.6253 34.6312ZM22.917 40.8812C22.5724 40.8812 22.2418 40.7446 21.9978 40.5014C21.7537 40.2581 21.616 39.9279 21.6149 39.5833V27.0833C21.6144 26.912 21.6476 26.7422 21.7128 26.5838C21.778 26.4253 21.8738 26.2813 21.9948 26.1599C22.1158 26.0386 22.2595 25.9423 22.4177 25.8766C22.576 25.8109 22.7457 25.7771 22.917 25.7771C24.9199 25.7771 26.8408 26.5727 28.2571 27.989C29.6734 29.4053 30.4691 31.3262 30.4691 33.3292C30.4691 35.3321 29.6734 37.253 28.2571 38.6693C26.8408 40.0856 24.9199 40.8812 22.917 40.8812ZM39.5837 28.3812H35.417C35.2098 28.3812 35.0111 28.4636 34.8646 28.6101C34.7181 28.7566 34.6357 28.9553 34.6357 29.1625V31.5021C34.6357 31.6413 34.6911 31.7749 34.7895 31.8733C34.888 31.9718 35.0215 32.0271 35.1607 32.0271H37.5003C37.8457 32.0271 38.1769 32.1643 38.421 32.4085C38.6652 32.6526 38.8024 32.9838 38.8024 33.3292C38.8024 33.6745 38.6652 34.0057 38.421 34.2499C38.1769 34.4941 37.8457 34.6312 37.5003 34.6312H35.1607C35.0215 34.6312 34.888 34.6866 34.7895 34.785C34.6911 34.8835 34.6357 35.017 34.6357 35.1562V39.5833C34.6357 39.9287 34.4986 40.2599 34.2544 40.504C34.0102 40.7482 33.679 40.8854 33.3337 40.8854C32.9883 40.8854 32.6571 40.7482 32.4129 40.504C32.1688 40.2599 32.0316 39.9287 32.0316 39.5833V29.1667C32.0316 28.2684 32.3881 27.4069 33.0229 26.7713C33.6577 26.1358 34.5187 25.7782 35.417 25.7771H39.5837C39.929 25.7771 40.2602 25.9143 40.5044 26.1585C40.7486 26.4026 40.8857 26.7338 40.8857 27.0792C40.8857 27.4245 40.7486 27.7557 40.5044 27.9999C40.2602 28.2441 39.929 28.3812 39.5837 28.3812Z" fill="#EB4336"/>
</g>
<defs>
<clipPath id="clip0_2:636">
<rect width="50" height="50" fill="white"/>
</clipPath>
</defs>
</svg>
