<svg width="50" height="50" viewBox="0 0 50 50" fill="none" xmlns="http://www.w3.org/2000/svg">
<g clip-path="url(#clip0_2:678)">
<path d="M36.458 12.5H44.583C44.6861 12.5002 44.787 12.4698 44.8729 12.4125C44.9587 12.3553 45.0256 12.2739 45.0651 12.1786C45.1046 12.0833 45.1149 11.9785 45.0947 11.8773C45.0745 11.7762 45.0248 11.6833 44.9518 11.6104L34.2226 0.885431C34.15 0.812651 34.0575 0.76298 33.9567 0.742672C33.856 0.722364 33.7514 0.732329 33.6563 0.77131C33.5612 0.810292 33.4797 0.876548 33.4222 0.961733C33.3647 1.04692 33.3336 1.14722 33.333 1.25001V9.37502C33.333 10.2038 33.6622 10.9987 34.2483 11.5847C34.8344 12.1708 35.6292 12.5 36.458 12.5Z" fill="#F5B300"/>
<path d="M45.3128 14.5833H36.4587C35.0773 14.5833 33.7526 14.0346 32.7758 13.0578C31.7991 12.0811 31.2503 10.7563 31.2503 9.375V0.516667C31.2492 0.379256 31.1939 0.247848 31.0963 0.151072C30.9988 0.0542966 30.8669 -4.39707e-06 30.7295 2.67054e-10L8.33366 2.67054e-10C7.22859 2.67055e-10 6.16878 0.438987 5.38738 1.22039C4.60598 2.00179 4.16699 3.0616 4.16699 4.16667V45.8333C4.16699 46.9384 4.60598 47.9982 5.38738 48.7796C6.16878 49.561 7.22859 50 8.33366 50H41.667C42.7721 50 43.8319 49.561 44.6133 48.7796C45.3947 47.9982 45.8337 46.9384 45.8337 45.8333V15.1C45.8326 14.9626 45.7772 14.8312 45.6796 14.7344C45.5821 14.6376 45.4502 14.5833 45.3128 14.5833ZM14.5837 33.5812H13.2857C13.1465 33.5812 13.013 33.6366 12.9145 33.735C12.8161 33.8335 12.7607 33.967 12.7607 34.1063V38.5292C12.7607 38.8745 12.6236 39.2057 12.3794 39.4499C12.1352 39.6941 11.804 39.8312 11.4587 39.8312C11.1133 39.8312 10.7821 39.6941 10.5379 39.4499C10.2938 39.2057 10.1566 38.8745 10.1566 38.5292V26.0292C10.1566 25.6838 10.2938 25.3526 10.5379 25.1085C10.7821 24.8643 11.1133 24.7271 11.4587 24.7271H14.5837C15.7578 24.7271 16.8838 25.1935 17.7141 26.0237C18.5443 26.854 19.0107 27.98 19.0107 29.1542C19.0107 30.3283 18.5443 31.4543 17.7141 32.2846C16.8838 33.1148 15.7578 33.5812 14.5837 33.5812ZM25.0003 33.5812H23.7024C23.5632 33.5812 23.4296 33.6366 23.3312 33.735C23.2327 33.8335 23.1774 33.967 23.1774 34.1063V38.5292C23.1774 38.8745 23.0402 39.2057 22.796 39.4499C22.5519 39.6941 22.2207 39.8312 21.8753 39.8312C21.53 39.8312 21.1988 39.6941 20.9546 39.4499C20.7104 39.2057 20.5732 38.8745 20.5732 38.5292V26.0292C20.5732 25.6838 20.7104 25.3526 20.9546 25.1085C21.1988 24.8643 21.53 24.7271 21.8753 24.7271H25.0003C26.1745 24.7271 27.3005 25.1935 28.1307 26.0237C28.961 26.854 29.4274 27.98 29.4274 29.1542C29.4274 30.3283 28.961 31.4543 28.1307 32.2846C27.3005 33.1148 26.1745 33.5812 25.0003 33.5812ZM40.6253 27.3312H38.2795C38.2114 27.3312 38.1439 27.3447 38.081 27.3707C38.018 27.3968 37.9609 27.435 37.9127 27.4832C37.8645 27.5314 37.8263 27.5885 37.8002 27.6515C37.7742 27.7144 37.7607 27.7819 37.7607 27.85V38.5417C37.7607 38.887 37.6236 39.2182 37.3794 39.4624C37.1352 39.7066 36.804 39.8438 36.4587 39.8438C36.1133 39.8438 35.7821 39.7066 35.5379 39.4624C35.2938 39.2182 35.1566 38.887 35.1566 38.5417V27.8583C35.1566 27.7208 35.1019 27.5888 35.0046 27.4915C34.9074 27.3942 34.7754 27.3396 34.6378 27.3396H32.292C31.9467 27.3396 31.6155 27.2024 31.3713 26.9582C31.1271 26.714 30.9899 26.3828 30.9899 26.0375C30.9899 25.6922 31.1271 25.361 31.3713 25.1168C31.6155 24.8726 31.9467 24.7354 32.292 24.7354H40.6253C40.9707 24.7354 41.3019 24.8726 41.546 25.1168C41.7902 25.361 41.9274 25.6922 41.9274 26.0375C41.9274 26.3828 41.7902 26.714 41.546 26.9582C41.3019 27.2024 40.9707 27.3396 40.6253 27.3396V27.3312Z" fill="#F5B300"/>
<path d="M14.5837 27.3396H13.2857C13.2168 27.3396 13.1485 27.3532 13.0848 27.3796C13.0211 27.406 12.9633 27.4446 12.9145 27.4934C12.8658 27.5421 12.8271 27.6 12.8007 27.6637C12.7743 27.7274 12.7607 27.7957 12.7607 27.8646V30.4605C12.7607 30.5997 12.8161 30.7332 12.9145 30.8317C13.013 30.9301 13.1465 30.9855 13.2857 30.9855H14.5837C15.0671 30.9855 15.5308 30.7934 15.8727 30.4515C16.2145 30.1097 16.4066 29.646 16.4066 29.1625C16.4066 28.6791 16.2145 28.2154 15.8727 27.8736C15.5308 27.5317 15.0671 27.3396 14.5837 27.3396Z" fill="#F5B300"/>
<path d="M24.9997 27.3396H23.7018C23.6328 27.3396 23.5645 27.3532 23.5008 27.3796C23.4372 27.406 23.3793 27.4446 23.3305 27.4934C23.2818 27.5421 23.2431 27.6 23.2167 27.6637C23.1903 27.7274 23.1768 27.7957 23.1768 27.8646V30.4605C23.1768 30.5997 23.2321 30.7332 23.3305 30.8317C23.429 30.9301 23.5625 30.9855 23.7018 30.9855H24.9997C25.4831 30.9855 25.9468 30.7934 26.2887 30.4515C26.6305 30.1097 26.8226 29.646 26.8226 29.1625C26.8226 28.6791 26.6305 28.2154 26.2887 27.8736C25.9468 27.5317 25.4831 27.3396 24.9997 27.3396Z" fill="#F5B300"/>
</g>
<defs>
<clipPath id="clip0_2:678">
<rect width="50" height="50" fill="white"/>
</clipPath>
</defs>
</svg>
