<svg width="20" height="20" viewBox="0 0 20 20" fill="none" xmlns="http://www.w3.org/2000/svg">
<path d="M19.4334 5.36663C19.4927 5.31735 19.5372 5.25257 19.5619 5.17952C19.5865 5.10647 19.5905 5.028 19.5732 4.95285C19.5559 4.87771 19.5181 4.80883 19.464 4.75388C19.4099 4.69894 19.3417 4.66008 19.2668 4.64163L18.6084 4.47497C18.5486 4.45998 18.4928 4.43189 18.4451 4.39271C18.3974 4.35354 18.3591 4.30427 18.3328 4.24845C18.3064 4.19263 18.2929 4.13167 18.293 4.06996C18.2931 4.00826 18.3069 3.94735 18.3334 3.89163L18.7001 3.14997C18.7348 3.0781 18.748 2.9978 18.7384 2.9186C18.7287 2.83941 18.6965 2.76466 18.6456 2.70322C18.5947 2.64179 18.5272 2.59626 18.4512 2.57205C18.3752 2.54784 18.2938 2.54596 18.2168 2.56663L16.5501 3.0333C16.488 3.05141 16.4226 3.05482 16.3589 3.04325C16.2953 3.03168 16.2352 3.00545 16.1834 2.96663C15.4622 2.42571 14.585 2.1333 13.6834 2.1333C12.5784 2.1333 11.5186 2.57229 10.7372 3.35369C9.95577 4.13509 9.51678 5.1949 9.51678 6.29997V6.59997C9.51715 6.65115 9.49867 6.70068 9.46485 6.7391C9.43104 6.77753 9.38426 6.80216 9.33345 6.8083C6.99178 7.0833 4.75012 5.89163 2.33345 3.1083C2.28095 3.0504 2.2135 3.0081 2.13852 2.98605C2.06354 2.96399 1.98393 2.96304 1.90845 2.9833C1.84045 3.01456 1.78212 3.06355 1.73959 3.12514C1.69707 3.18673 1.67192 3.25863 1.66678 3.3333C1.333 4.70442 1.46795 6.14782 2.05012 7.4333C2.06734 7.4674 2.07486 7.50557 2.07185 7.54365C2.06884 7.58173 2.05542 7.61825 2.03306 7.64922C2.01069 7.68019 1.98024 7.70441 1.94504 7.71924C1.90983 7.73407 1.87123 7.73893 1.83345 7.7333L0.900115 7.54997C0.833834 7.53931 0.765958 7.54483 0.702267 7.56605C0.638576 7.58727 0.580956 7.62356 0.534311 7.67185C0.487667 7.72013 0.453379 7.77896 0.434366 7.84335C0.415354 7.90773 0.41218 7.97576 0.425115 8.04163C0.497064 8.68117 0.711927 9.29634 1.0538 9.84161C1.39567 10.3869 1.8558 10.8483 2.40012 11.1916C2.43534 11.2087 2.46504 11.2353 2.48583 11.2685C2.50661 11.3017 2.51764 11.34 2.51764 11.3791C2.51764 11.4183 2.50661 11.4566 2.48583 11.4898C2.46504 11.5229 2.43534 11.5496 2.40012 11.5666L1.95845 11.7416C1.90481 11.7631 1.85623 11.7956 1.8158 11.8368C1.77537 11.8781 1.74397 11.9274 1.72359 11.9815C1.70322 12.0355 1.69431 12.0933 1.69744 12.151C1.70057 12.2087 1.71567 12.2651 1.74178 12.3166C1.98602 12.8511 2.35625 13.3183 2.8207 13.6782C3.28515 14.0382 3.82997 14.2801 4.40845 14.3833C4.44867 14.3979 4.48342 14.4245 4.50797 14.4596C4.53253 14.4946 4.5457 14.5363 4.5457 14.5791C4.5457 14.6219 4.53253 14.6637 4.50797 14.6987C4.48342 14.7337 4.44867 14.7604 4.40845 14.775C3.27542 15.2436 2.0595 15.4788 0.833449 15.4666C0.722942 15.4445 0.608181 15.4672 0.514413 15.5297C0.420645 15.5923 0.35555 15.6895 0.333449 15.8C0.311347 15.9105 0.33405 16.0252 0.396562 16.119C0.459074 16.2128 0.556275 16.2779 0.666782 16.3C2.78974 17.3068 5.1011 17.8549 7.45012 17.9083C9.51633 17.9398 11.5458 17.36 13.2834 16.2416C14.7128 15.2875 15.8839 13.9945 16.6923 12.478C17.5007 10.9615 17.9214 9.26851 17.9168 7.54997V6.82497C17.9173 6.76446 17.931 6.70479 17.9569 6.6501C17.9828 6.59541 18.0203 6.54703 18.0668 6.5083L19.4334 5.36663Z" fill="#6E6D7A"/>
</svg>
