<svg width="48" height="48" viewBox="0 0 48 48" fill="none" xmlns="http://www.w3.org/2000/svg">
<path d="M43.9998 29.4047V32.1718C43.9998 32.631 43.9798 33.0941 43.9397 33.5533C43.3786 39.8715 38.9898 44 32.6571 44H15.3425C12.1361 44 9.43066 42.9594 7.48677 41.0725C6.72525 40.3727 6.08397 39.5506 5.58297 38.6082C6.24429 37.8042 6.98577 36.9239 7.70721 36.0417C8.92966 34.5779 10.112 33.1322 10.8535 32.1918C11.9557 30.8284 14.8615 27.2392 18.8896 28.9235C19.7112 29.2644 20.4327 29.7456 21.094 30.1667C22.7172 31.2494 23.3986 31.5702 24.5409 30.9487C25.8034 30.2669 26.6251 28.9235 27.4868 27.5199C27.9477 26.776 28.4086 26.0562 28.9096 25.3945C31.094 22.5472 34.4607 21.7852 37.2663 23.4696C38.6691 24.3117 39.8715 25.3744 40.9938 26.4552C41.2343 26.6958 41.4748 26.9184 41.6952 27.1389C41.9958 27.4397 42.9978 28.4423 43.9998 29.4047Z" fill="#FF5864"/>
<path opacity="0.4" d="M32.6774 4H15.3427C8.5491 4 4 8.75214 4 15.8282V32.172C4 34.6363 4.56112 36.8239 5.58317 38.6084C6.24449 37.8044 6.98597 36.9241 7.70741 36.0399C8.92986 34.5781 10.1122 33.1324 10.8537 32.192C11.9559 30.8285 14.8617 27.2394 18.8898 28.9237C19.7114 29.2646 20.4329 29.7458 21.0942 30.1669C22.7174 31.2496 23.3988 31.5704 24.5411 30.9468C25.8036 30.2671 26.6253 28.9237 27.487 27.5181C27.9479 26.7762 28.4088 26.0564 28.9098 25.3947C31.0942 22.5474 34.4609 21.7854 37.2665 23.4697C38.6693 24.3119 39.8717 25.3746 40.994 26.4554C41.2345 26.696 41.475 26.9186 41.6954 27.1391C41.996 27.4379 42.998 28.4404 44 29.4049V15.8282C44 8.75214 39.4509 4 32.6774 4Z" fill="#FF5864"/>
<path d="M22.9088 17.5934C22.9088 20.4106 20.5621 22.7566 17.7465 22.7566C14.9329 22.7566 12.5862 20.4106 12.5862 17.5934C12.5862 14.7782 14.9329 12.4302 17.7465 12.4302C20.5621 12.4302 22.9088 14.7782 22.9088 17.5934Z" fill="#FF5864"/>
</svg>
