<svg width="24" height="24" viewBox="0 0 24 24" fill="none" xmlns="http://www.w3.org/2000/svg">
<path fill-rule="evenodd" clip-rule="evenodd" d="M13.9761 2.00037C14.019 2.00037 14.0611 2.00398 14.1021 2.01093L14.239 2.01177C14.443 2.01177 14.638 2.09477 14.78 2.24177L19.845 7.51877C19.979 7.65777 20.0541 7.84477 20.0541 8.03777V17.2038C20.072 19.7128 18.118 21.7628 15.605 21.8648L7.58595 21.8658H7.47695C5.02701 21.8104 3.06212 19.829 3.00225 17.4029L3.00195 6.49077C3.05995 4.00977 5.10895 2.01177 7.57195 2.01177L13.85 2.01093C13.891 2.00398 13.9331 2.00037 13.9761 2.00037ZM13.226 3.51137L7.57395 3.51177C5.91695 3.51177 4.54095 4.85377 4.50195 6.50877V17.2038C4.46495 18.9168 5.81495 20.3278 7.51095 20.3658H15.575C17.244 20.2968 18.566 18.9098 18.554 17.2098L18.554 8.98337L16.5441 8.98437C14.7141 8.97937 13.2261 7.48737 13.2261 5.65937L13.226 3.51137ZM13.7893 14.6085C14.2033 14.6085 14.5393 14.9445 14.5393 15.3585C14.5393 15.7725 14.2033 16.1085 13.7893 16.1085H8.38925C7.97525 16.1085 7.63925 15.7725 7.63925 15.3585C7.63925 14.9445 7.97525 14.6085 8.38925 14.6085H13.7893ZM11.7444 10.8565C12.1584 10.8565 12.4944 11.1925 12.4944 11.6065C12.4944 12.0205 12.1584 12.3565 11.7444 12.3565H8.38835C7.97435 12.3565 7.63835 12.0205 7.63835 11.6065C7.63835 11.1925 7.97435 10.8565 8.38835 10.8565H11.7444ZM14.726 4.35237L14.7261 5.65937C14.7261 6.66337 15.5431 7.48137 16.5461 7.48437L17.732 7.48337L14.726 4.35237Z" fill="#0D0C22"/>
</svg>
