<svg width="20" height="20" viewBox="0 0 20 20" fill="none" xmlns="http://www.w3.org/2000/svg">
<g clip-path="url(#clip0_2_3222)">
<path d="M20 9.99985C20.0001 8.26708 19.55 6.564 18.6938 5.05757C17.8375 3.55113 16.6046 2.29304 15.1157 1.4066C13.6268 0.52017 11.9332 0.0358228 10.2007 0.00103893C8.46832 -0.033745 6.75659 0.382228 5.23333 1.20818H5.19167C3.62156 2.07824 2.31242 3.35198 1.39967 4.89766C0.486919 6.44333 0.00370017 8.2048 1.11633e-06 9.99985C-0.00108957 12.3033 0.797077 14.5358 2.25833 16.3165C3.5635 17.9128 5.33021 19.0666 7.31652 19.6199C9.30283 20.1732 11.4116 20.099 13.3541 19.4074C15.2966 18.7158 16.9778 17.4407 18.1675 15.7566C19.3573 14.0725 19.9973 12.0618 20 9.99985ZM16.725 5.09985C17.7123 6.43932 18.2728 8.0453 18.3333 9.70818C17.6 9.63318 16.8167 9.59152 16.15 9.59152C14.9847 9.59614 13.822 9.70209 12.675 9.90818C12.45 9.33318 12.2083 8.76652 11.9333 8.24152C13.6737 7.43092 15.2877 6.37273 16.725 5.09985ZM15.6167 3.86652C14.2619 5.04776 12.7399 6.02219 11.1 6.75818C10.0431 5.03667 8.73096 3.48565 7.20833 2.15818C8.62805 1.63898 10.1631 1.51984 11.646 1.81376C13.1288 2.10768 14.5023 2.80336 15.6167 3.82485V3.86652ZM5.56667 2.95818C7.11708 4.20581 8.45401 5.69755 9.525 7.37485C7.624 8.0149 5.63085 8.33865 3.625 8.33318C3.03333 8.33318 2.44167 8.33318 1.85 8.24152C2.0867 7.15783 2.53737 6.13231 3.17559 5.22508C3.8138 4.31784 4.62671 3.54715 5.56667 2.95818ZM1.66667 9.93318C2.31667 9.99985 2.96667 10.0415 3.61667 10.0415C5.91529 10.0386 8.19611 9.63823 10.3583 8.85818C10.5972 9.32485 10.8139 9.79985 11.0083 10.2832C8.05149 11.0668 5.31619 12.5243 3.01667 14.5415C2.11968 13.1732 1.64977 11.5692 1.66667 9.93318ZM4.05833 15.8332C6.20834 13.9313 8.77863 12.5662 11.5583 11.8498C12.0788 13.5769 12.3427 15.3711 12.3417 17.1749C12.3417 17.4499 12.3417 17.7248 12.3417 18.0082C10.8938 18.4347 9.35697 18.4576 7.8971 18.0742C6.43723 17.6909 5.10985 16.916 4.05833 15.8332ZM14.0583 17.2999C14.0583 17.2999 14.0583 17.2165 14.0583 17.1749C14.0524 15.2559 13.7717 13.3476 13.225 11.5082C14.189 11.3476 15.1644 11.264 16.1417 11.2582C16.7833 11.2582 17.525 11.2998 18.2167 11.3748C18.0091 12.6154 17.5235 13.7928 16.7961 14.819C16.0687 15.8451 15.1185 16.6932 14.0167 17.2999H14.0583Z" fill="#6E6D7A"/>
</g>
<defs>
<clipPath id="clip0_2_3222">
<rect width="20" height="20" fill="white"/>
</clipPath>
</defs>
</svg>
