<svg width="20" height="20" viewBox="0 0 20 20" fill="none" xmlns="http://www.w3.org/2000/svg">
<path d="M15.7675 11.9555C15.7563 12.0486 15.7111 12.1344 15.6407 12.1964C15.5702 12.2584 15.4794 12.2923 15.3856 12.2916H13.8196C13.7183 12.2916 13.6212 12.3318 13.5495 12.4035C13.4779 12.4751 13.4377 12.5722 13.4377 12.6735V18.7846C13.4377 18.8859 13.4779 18.9831 13.5495 19.0547C13.6212 19.1263 13.7183 19.1666 13.8196 19.1666H18.4029C18.6055 19.1666 18.7998 19.0861 18.9431 18.9428C19.0863 18.7996 19.1668 18.6053 19.1668 18.4027V1.59714C19.1668 1.39454 19.0863 1.20025 18.9431 1.05699C18.7998 0.913733 18.6055 0.833252 18.4029 0.833252H1.59738C1.39479 0.833252 1.20049 0.913733 1.05723 1.05699C0.913977 1.20025 0.833496 1.39454 0.833496 1.59714L0.833496 18.4027C0.833496 18.6053 0.913977 18.7996 1.05723 18.9428C1.20049 19.0861 1.39479 19.1666 1.59738 19.1666H10.0002C10.1015 19.1666 10.1986 19.1263 10.2702 19.0547C10.3419 18.9831 10.3821 18.8859 10.3821 18.7846V12.6735C10.3821 12.5722 10.3419 12.4751 10.2702 12.4035C10.1986 12.3318 10.1015 12.2916 10.0002 12.2916H8.47238C8.37109 12.2916 8.27394 12.2513 8.20231 12.1797C8.13068 12.1081 8.09044 12.0109 8.09044 11.9096V9.61797C8.09044 9.51668 8.13068 9.41953 8.20231 9.3479C8.27394 9.27627 8.37109 9.23603 8.47238 9.23603H10.0002C10.1015 9.23603 10.1986 9.19579 10.2702 9.12416C10.3419 9.05253 10.3821 8.95538 10.3821 8.85408V7.85339C10.3821 6.70062 10.84 5.59506 11.6552 4.77993C12.4703 3.9648 13.5759 3.50686 14.7286 3.50686H15.7293C15.8306 3.50686 15.9278 3.5471 15.9994 3.61873C16.071 3.69036 16.1113 3.78751 16.1113 3.88881V6.18047C16.1113 6.28177 16.071 6.37892 15.9994 6.45055C15.9278 6.52218 15.8306 6.56242 15.7293 6.56242H14.7286C14.3862 6.56242 14.0579 6.69843 13.8158 6.94054C13.5737 7.18264 13.4377 7.511 13.4377 7.85339V8.85408C13.4377 8.95538 13.4779 9.05253 13.5495 9.12416C13.6212 9.19579 13.7183 9.23603 13.8196 9.23603H15.6759C15.7301 9.23564 15.7838 9.24681 15.8334 9.2688C15.883 9.2908 15.9274 9.32311 15.9635 9.36358C15.9997 9.40406 16.0268 9.45177 16.043 9.50353C16.0593 9.5553 16.0643 9.60994 16.0578 9.66381L15.7675 11.9555Z" fill="#6E6D7A"/>
</svg>
