<svg width="20" height="20" viewBox="0 0 20 20" fill="none" xmlns="http://www.w3.org/2000/svg">
<path d="M14.2016 0.833252H5.79877C4.48252 0.835272 3.22076 1.35905 2.29002 2.28978C1.35929 3.22051 0.835516 4.48228 0.833496 5.79853L0.833496 14.2013C0.835516 15.5176 1.35929 16.7793 2.29002 17.7101C3.22076 18.6408 4.48252 19.1646 5.79877 19.1666H14.2016C15.5178 19.1646 16.7796 18.6408 17.7103 17.7101C18.641 16.7793 19.1648 15.5176 19.1668 14.2013V5.79853C19.1648 4.48228 18.641 3.22051 17.7103 2.28978C16.7796 1.35905 15.5178 0.835272 14.2016 0.833252V0.833252ZM10.0002 14.2013C9.16921 14.2013 8.35691 13.9549 7.666 13.4932C6.97508 13.0316 6.43658 12.3754 6.11859 11.6077C5.80059 10.84 5.71739 9.99526 5.8795 9.18027C6.04161 8.36528 6.44176 7.61666 7.02933 7.02909C7.61691 6.44151 8.36552 6.04137 9.18051 5.87926C9.9955 5.71715 10.8403 5.80035 11.608 6.11834C12.3757 6.43633 13.0318 6.97484 13.4935 7.66575C13.9551 8.35667 14.2016 9.16896 14.2016 9.99992C14.2016 11.1142 13.7589 12.1828 12.971 12.9707C12.1831 13.7587 11.1144 14.2013 10.0002 14.2013ZM14.9654 5.79853C14.7388 5.79853 14.5173 5.73133 14.3288 5.60542C14.1404 5.47952 13.9936 5.30056 13.9068 5.09119C13.8201 4.88181 13.7974 4.65143 13.8416 4.42916C13.8858 4.20689 13.995 4.00272 14.1552 3.84247C14.3155 3.68222 14.5196 3.57309 14.7419 3.52888C14.9642 3.48467 15.1946 3.50736 15.4039 3.59408C15.6133 3.68081 15.7923 3.82767 15.9182 4.01611C16.0441 4.20454 16.1113 4.42607 16.1113 4.6527C16.1113 4.95659 15.9906 5.24804 15.7757 5.46292C15.5608 5.67781 15.2693 5.79853 14.9654 5.79853Z" fill="#6E6D7A"/>
</svg>
